mtllib key.mtl
# vertices
v 0 9 -0
v 0 7 -0
v 0 7 6
v 0 9 6
v 6 1 -0
v 6 1 6
v 8 1 6
v 8 1 -0
v 14 7 6
v 6 15 6
v 6 15 -0
v 14 7 -0
v 14 9 6
v 8 15 6
v 8 15 -0
v 14 9 -0
v 8 1 6
v 7 2 6
v 7 2 -0
v 8 1 -0
v 13 8 -0
v 13 8 6
v 14 7 6
v 14 7 -0
v 1 8 6
v 0 9 6
v 0 9 -0
v 1 8 -0
v 6 15 -0
v 6 15 6
v 7 14 6
v 7 14 -0
v 29 0 2
v 29 0 4
v 29 2 4
v 29 2 2
v 31 2 4
v 31 0 4
v 31 0 2
v 31 2 2
v 31 0 2
v 31 0 4
v 31 8 4
v 31 8 2
v 33 8 4
v 33 0 4
v 33 0 2
v 33 8 2
v 11 11 2
v 14 8 2
v 14 8 4
v 11 11 4
v 13 10 5
v 13 10 1
v 37 10 5
v 39 8 4
v 35 11 4
v 39 8 2
v 35 11 2
v 37 10 1
v 29 5 2
v 29 5 4
v 29 7 4
v 29 7 2
v 31 7 4
v 31 5 4
v 31 5 2
v 31 7 2

# texture coordinates
vt -0.0625 0.0625
vt 0.0625 0.0625
vt 0.0625 0.4375
vt -0.0625 0.4375
vt 0.09359194 0.0625
vt 0.09359194 0.4375
vt -0.43673813 0.4375
vt -0.43673813 0.0625
vt 0.5625 0.0625
vt 0.5625 -0.0625
vt 0.9375 -0.4375
vt 1.0625 -0.4375
vt 1.0625 0.4375
vt 0.9375 0.4375
vt 0.9375 0.0625
vt 1.0625 0.0625
vt -1.0625 -0.4375
vt -0.9375 -0.4375
vt -0.5625 -0.0625
vt -0.5625 0.0625
vt 0.5251265 0.4375
vt -0.1819803 0.4375
vt -0.1819803 0.0625
vt 0.5251265 0.0625
vt 0.1819803 0.4375
vt -0.5251265 0.4375
vt -0.5251265 0.0625
vt 0.1819803 0.0625
vt 1.4375 0.0625
vt 1.4375 -0.0625
vt -1.0625 0.0625
vt -0.9375 0.0625
vt -0.9375 0.4375
vt -1.0625 0.4375
vt -1.4375 -0.0625
vt -1.4375 0.0625
vt -0.09359194 0.0625
vt 0.43673813 0.0625
vt 0.43673813 0.4375
vt -0.09359194 0.4375
vt 0.18198055 0.4375
vt 0.0935922 0.4375
vt 0.0935922 0.0625
vt 0.18198055 0.0625
vt -1.2651651 0.0625
vt -0.73483497 0.0625
vt -0.73483497 0.4375
vt -1.2651651 0.4375
vt 1.375 -0
vt 1 -0.375
vt -1 -0.375
vt -1.375 -0
vt 1.2651651 0.4375
vt 0.73483497 0.4375
vt 0.73483497 0.0625
vt 1.2651651 0.0625
vt -0.18198055 0.0625
vt -0.0935922 0.0625
vt -0.0935922 0.4375
vt -0.18198055 0.4375
vt -0.436738 0.4375
vt -0.52512634 0.4375
vt -0.52512634 0.0625
vt -0.436738 0.0625
vt 0.625 -0
vt 1 0.375
vt -1 0.375
vt -0.625 -0
vt 0.436738 0.0625
vt 0.52512634 0.0625
vt 0.52512634 0.4375
vt 0.436738 0.4375
vt 0.5 0.1875
vt 0.5 0.3125
vt 0.375 0.3125
vt 0.375 0.1875
vt 2.5 -0.375
vt 2.375 -0.375
vt 2.375 -0.5
vt 2.5 -0.5
vt 2.5 0.3125
vt 2.375 0.3125
vt 2.375 0.1875
vt 2.5 0.1875
vt -2.5 0.1875
vt -2.375 0.1875
vt -2.375 0.3125
vt -2.5 0.3125
vt -2.5 -0.5
vt -2.375 -0.5
vt -2.375 -0.375
vt -2.5 -0.375
vt -0.375 0.1875
vt -0.375 0.3125
vt -0.5 0.3125
vt -0.5 0.1875
vt 0 0.3125
vt 0 0.1875
vt 2.625 -0
vt 2.5 -0
vt 2.625 -0.5
vt 2.625 0.3125
vt 2.625 0.1875
vt -2.625 0.1875
vt -2.625 0.3125
vt -2.625 -0.5
vt -2.5 -0
vt -2.625 -0
vt -0.37261996 0.1875
vt -0.1210623 0.1875
vt -0.1210623 0.3125
vt -0.37261996 0.3125
vt -0.13778624 0.3125
vt -0.40295127 0.3125
vt -0.27036875 0.375
vt -0.40295127 0.1875
vt -0.13778624 0.1875
vt -0.27036875 0.125
vt 2.875 1.490654
vt 1.375 1.490654
vt 1.4375 1.3508997
vt 3 1.3508997
vt 2.25 0.1875
vt 0.75 0.1875
vt 0.875 0.125
vt 2.375 0.125
vt 3 0.3125
vt 1.4375 0.3125
vt 1.4375 0.1875
vt 3 0.1875
vt -2.25 0.0625
vt -0.75 0.0625
vt -0.75 0.1875
vt -2.25 0.1875
vt -2.375 0.125
vt -0.875 0.125
vt -3 0.12729287
vt -1.4375 0.12729287
vt -1.375 0.2670471
vt -2.875 0.2670471
vt -1.4194173 -0
vt -1.2868347 0.0625
vt -1.2868347 0.1875
vt -1.4194173 0.25
vt -1.242641 0.3125
vt -1.242641 0.1875
vt -1.0658642 0.125
vt -1.0658642 0.375
vt -0.625 0.3125
vt -0.625 0.1875
vt 2.5 0.625
vt 2.375 0.625
vt 2.375 0.5
vt 2.5 0.5
vt -2.5 0.5
vt -2.375 0.5
vt -2.375 0.625
vt -2.5 0.625
vt 0.625 0.1875
vt 0.625 0.3125

# normals
vn -1 0 -0
vn -0.7071067811865476 -0.7071067811865476 -0
vn 0 0 1
vn 0 -1 -0
vn 0 -0 -1
vn 0.7071067811865476 0.7071067811865476 -0
vn 0 1 -0
vn 1 0 -0
vn -0.7071067811865476 0.7071067811865476 -0
vn 0.7071067811865476 -0.7071067811865476 -0
vn -0.5773502691896257 -0.5773502691896257 0.5773502691896257
vn -0.5773502691896257 -0.5773502691896257 -0.5773502691896257
vn 0 -0.4472135954999579 0.8944271909999159
vn 0 0.7071067811865476 0.7071067811865476
vn 0 0.7071067811865476 -0.7071067811865476
vn 0 -0.4472135954999579 -0.8944271909999159
vn 0.4472135954999579 0.8944271909999159 -0
vn 0.7071067811865475 0.7071067811865475 0

o entity2_brush0
usemtl lq_dev/flat_01_p
f  1/1/1  2/2/1  3/3/1  4/4/1
usemtl lq_dev/flat_01_p
f  5/5/2  6/6/2  3/7/2  2/8/2
usemtl lq_dev/flat_01_p
f  4/9/3  3/10/3  6/11/3  7/12/3
usemtl lq_dev/flat_01_p
f  7/13/4  6/14/4  5/15/4  8/16/4
usemtl lq_dev/flat_01_p
f  8/17/5  5/18/5  2/19/5  1/20/5
usemtl lq_dev/flat_01_p
f  4/21/6  7/22/6  8/23/6  1/24/6

o entity2_brush1
usemtl lq_dev/flat_01_p
f  9/25/2  10/26/2  11/27/2  12/28/2
usemtl lq_dev/flat_01_p
f  13/29/3  14/13/3  10/14/3  9/30/3
usemtl lq_dev/flat_01_p
f  15/31/7  11/32/7  10/33/7  14/34/7
usemtl lq_dev/flat_01_p
f  12/35/5  11/33/5  15/34/5  16/36/5
usemtl lq_dev/flat_01_p
f  16/37/6  15/38/6  14/39/6  13/40/6
usemtl lq_dev/flat_01_p
f  12/1/8  16/2/8  13/3/8  9/4/8

o entity2_brush2
usemtl lq_dev/flat_01_p
f  17/41/2  18/42/2  19/43/2  20/44/2
usemtl lq_dev/flat_01_p
f  21/45/9  19/46/9  18/47/9  22/48/9
usemtl lq_dev/flat_01_p
f  22/49/3  18/50/3  17/12/3  23/30/3
usemtl lq_dev/flat_01_p
f  24/35/5  20/17/5  19/51/5  21/52/5
usemtl lq_dev/flat_01_p
f  23/53/10  17/54/10  20/55/10  24/56/10
usemtl lq_dev/flat_01_p
f  24/57/6  21/58/6  22/59/6  23/60/6

o entity2_brush3
usemtl lq_dev/flat_01_p
f  25/61/2  26/62/2  27/63/2  28/64/2
usemtl lq_dev/flat_01_p
f  29/45/9  27/46/9  26/47/9  30/48/9
usemtl lq_dev/flat_01_p
f  30/14/3  26/9/3  25/65/3  31/66/3
usemtl lq_dev/flat_01_p
f  32/67/5  28/68/5  27/20/5  29/33/5
usemtl lq_dev/flat_01_p
f  31/53/10  25/54/10  28/55/10  32/56/10
usemtl lq_dev/flat_01_p
f  32/69/6  29/70/6  30/71/6  31/72/6

o entity2_brush4
usemtl lq_dev/flat_01_p
f  33/73/1  34/74/1  35/75/1  36/76/1
usemtl lq_dev/flat_01_p
f  37/77/3  35/78/3  34/79/3  38/80/3
usemtl lq_dev/flat_01_p
f  38/81/4  34/82/4  33/83/4  39/84/4
usemtl lq_dev/flat_01_p
f  40/85/7  36/86/7  35/87/7  37/88/7
usemtl lq_dev/flat_01_p
f  39/89/5  33/90/5  36/91/5  40/92/5
usemtl lq_dev/flat_01_p
f  40/93/8  37/94/8  38/95/8  39/96/8

o entity2_brush5
usemtl lq_dev/flat_01_p
f  41/73/1  42/74/1  43/97/1  44/98/1
usemtl lq_dev/flat_01_p
f  45/99/3  43/100/3  42/80/3  46/101/3
usemtl lq_dev/flat_01_p
f  46/102/4  42/81/4  41/84/4  47/103/4
usemtl lq_dev/flat_01_p
f  48/104/7  44/85/7  43/88/7  45/105/7
usemtl lq_dev/flat_01_p
f  47/106/5  41/89/5  44/107/5  48/108/5
usemtl lq_dev/flat_01_p
f  48/98/8  45/97/8  46/95/8  47/96/8

o entity2_brush6
usemtl lq_dev/flat_01_p
f  49/109/2  50/110/2  51/111/2  52/112/2
usemtl lq_dev/flat_01_p
f  52/113/11  51/114/11  53/115/11
usemtl lq_dev/flat_01_p
f  50/116/12  49/117/12  54/118/12
usemtl lq_dev/flat_01_p
f  55/119/13  53/120/13  51/121/13  56/122/13
usemtl lq_dev/flat_01_p
f  57/123/14  52/124/14  53/125/14  55/126/14
usemtl lq_dev/flat_01_p
f  56/127/4  51/128/4  50/129/4  58/130/4
usemtl lq_dev/flat_01_p
f  59/131/7  49/132/7  52/133/7  57/134/7
usemtl lq_dev/flat_01_p
f  60/135/15  54/136/15  49/133/15  59/134/15
usemtl lq_dev/flat_01_p
f  58/137/16  50/138/16  54/139/16  60/140/16
usemtl lq_dev/flat_01_p
f  60/141/17  59/142/17  57/143/17  55/144/17
usemtl lq_dev/flat_01_p
f  56/145/18  58/146/18  60/147/18  55/148/18

o entity2_brush7
usemtl lq_dev/flat_01_p
f  61/96/1  62/95/1  63/149/1  64/150/1
usemtl lq_dev/flat_01_p
f  65/151/3  63/152/3  62/153/3  66/154/3
usemtl lq_dev/flat_01_p
f  66/81/4  62/82/4  61/83/4  67/84/4
usemtl lq_dev/flat_01_p
f  68/85/7  64/86/7  63/87/7  65/88/7
usemtl lq_dev/flat_01_p
f  67/155/5  61/156/5  64/157/5  68/158/5
usemtl lq_dev/flat_01_p
f  68/159/8  65/160/8  66/74/8  67/73/8

